<?xml version="1.0" encoding="UTF-8" standalone="no"?>
<svg
   viewBox="0 0 4197.5137 771.54034"
   id="svg2"
   version="1.1"
   inkscape:version="1.1.2 (b8e25be833, 2022-02-05)"
   sodipodi:docname="logo.svg"
   width="4197.5137"
   height="771.54034"
   xmlns:inkscape="http://www.inkscape.org/namespaces/inkscape"
   xmlns:sodipodi="http://sodipodi.sourceforge.net/DTD/sodipodi-0.dtd"
   xmlns="http://www.w3.org/2000/svg"
   xmlns:svg="http://www.w3.org/2000/svg"
   xmlns:rdf="http://www.w3.org/1999/02/22-rdf-syntax-ns#"
   xmlns:cc="http://creativecommons.org/ns#"
   xmlns:dc="http://purl.org/dc/elements/1.1/">
  <metadata
     id="metadata10">
    <rdf:RDF>
      <cc:Work
         rdf:about="">
        <dc:format>image/svg+xml</dc:format>
        <dc:type
           rdf:resource="http://purl.org/dc/dcmitype/StillImage" />
      </cc:Work>
    </rdf:RDF>
  </metadata>
  <defs
     id="defs8">
    <marker
       inkscape:isstock="true"
       style="overflow:visible"
       id="marker8454"
       refX="0"
       refY="0"
       orient="auto"
       inkscape:stockid="Arrow1Mend">
      <path
         inkscape:connector-curvature="0"
         transform="matrix(-0.4,0,0,-0.4,-4,0)"
         style="fill:#1b1e2e;fill-opacity:1;fill-rule:evenodd;stroke:#1b1e2e;stroke-width:1pt;stroke-opacity:1"
         d="M 0,0 5,-5 -12.5,0 5,5 Z"
         id="path8456" />
    </marker>
    <marker
       inkscape:isstock="true"
       style="overflow:visible"
       id="marker7644"
       refX="0"
       refY="0"
       orient="auto"
       inkscape:stockid="Arrow1Mend">
      <path
         inkscape:connector-curvature="0"
         transform="matrix(-0.4,0,0,-0.4,-4,0)"
         style="fill:#1b1e2e;fill-opacity:1;fill-rule:evenodd;stroke:#1b1e2e;stroke-width:1pt;stroke-opacity:1"
         d="M 0,0 5,-5 -12.5,0 5,5 Z"
         id="path7646" />
    </marker>
    <clipPath
       id="a">
      <path
         d="M239.03 226.605l-42.13 24.317c-1.578.91-2.546 2.59-2.546 4.406v48.668c0 1.817.968 3.496 2.546 4.406l42.133 24.336c1.575.907 3.517.907 5.09 0l42.126-24.336c1.57-.91 2.54-2.59 2.54-4.406v-48.668c0-1.816-.97-3.496-2.55-4.406l-42.12-24.317c-.79-.453-1.67-.68-2.55-.68-.88 0-1.76.227-2.55.68"
         id="path975" />
    </clipPath>
    <clipPath
       id="c">
      <path
         d="M195.398 307.086c.403.523.907.976 1.5 1.316l36.14 20.875 6.02 3.46c.9.52 1.926.74 2.934.665.336-.027.672-.09 1-.183l44.434-81.36c-.34-.37-.738-.68-1.184-.94l-27.586-15.93-14.582-8.39c-.414-.24-.863-.41-1.32-.53zm0 0"
         id="path985" />
    </clipPath>
    <clipPath
       id="e">
      <path
         d="M241.066 225.953c-.707.07-1.398.29-2.035.652l-42.01 24.247 45.3 82.51c.63-.09 1.25-.3 1.81-.624l42.13-24.336c1.3-.754 2.19-2.03 2.46-3.476l-46.18-78.89c-.34-.067-.68-.102-1.03-.102-.14 0-.28.007-.42.02"
         id="path995" />
    </clipPath>
    <linearGradient
       id="paint0_linear_337_7901"
       x1="130.147"
       y1="57.7802"
       x2="102.227"
       y2="114.729"
       gradientUnits="userSpaceOnUse">
      <stop
         stop-color="#3F873F"
         id="stop5832" />
      <stop
         offset="0.3296"
         stop-color="#3F8B3D"
         id="stop5834" />
      <stop
         offset="0.6367"
         stop-color="#3E9638"
         id="stop5836" />
      <stop
         offset="0.9341"
         stop-color="#3DA92E"
         id="stop5838" />
      <stop
         offset="1"
         stop-color="#3DAE2B"
         id="stop5840" />
    </linearGradient>
    <linearGradient
       id="paint1_linear_337_7901"
       x1="112.883"
       y1="87.586"
       x2="191.215"
       y2="29.7213"
       gradientUnits="userSpaceOnUse">
      <stop
         offset="0.1376"
         stop-color="#3F873F"
         id="stop5843" />
      <stop
         offset="0.4016"
         stop-color="#52A044"
         id="stop5845" />
      <stop
         offset="0.7129"
         stop-color="#64B749"
         id="stop5847" />
      <stop
         offset="0.9081"
         stop-color="#6ABF4B"
         id="stop5849" />
    </linearGradient>
    <linearGradient
       id="paint2_linear_337_7901"
       x1="81.8683"
       y1="83.4042"
       x2="153.304"
       y2="83.4042"
       gradientUnits="userSpaceOnUse">
      <stop
         offset="0.0919165"
         stop-color="#6ABF4B"
         id="stop5852" />
      <stop
         offset="0.2871"
         stop-color="#64B749"
         id="stop5854" />
      <stop
         offset="0.5984"
         stop-color="#52A044"
         id="stop5856" />
      <stop
         offset="0.8624"
         stop-color="#3F873F"
         id="stop5858" />
    </linearGradient>
    <clipPath
       id="clip0_337_7901">
      <rect
         width="319"
         height="195"
         fill="white"
         id="rect5861" />
    </clipPath>
  </defs>
  <sodipodi:namedview
     pagecolor="#ffffff"
     bordercolor="#666666"
     borderopacity="1"
     objecttolerance="10"
     gridtolerance="10"
     guidetolerance="10"
     inkscape:pageopacity="0"
     inkscape:pageshadow="2"
     inkscape:window-width="1920"
     inkscape:window-height="1017"
     id="namedview6"
     showgrid="false"
     showguides="true"
     inkscape:guide-bbox="true"
     inkscape:zoom="0.22627417"
     inkscape:cx="1796.4932"
     inkscape:cy="883.88348"
     inkscape:window-x="-8"
     inkscape:window-y="-8"
     inkscape:window-maximized="1"
     inkscape:current-layer="svg2"
     fit-margin-top="0"
     fit-margin-left="0"
     fit-margin-right="0"
     fit-margin-bottom="0"
     inkscape:pagecheckerboard="0" />
  <rect
     style="opacity:1;fill:#112511;fill-opacity:1;fill-rule:nonzero;stroke:#ffffff;stroke-width:10;stroke-linecap:butt;stroke-linejoin:miter;stroke-miterlimit:4;stroke-dasharray:none;stroke-dashoffset:0;stroke-opacity:1"
     id="rect4178"
     width="4187.5137"
     height="761.54034"
     x="5"
     y="5" />
  <path
     d="m 2133.6016,143.77017 c 0,-4.4 3.6,-8 8,-8 h 144 c 22.1,0 40,17.9 40,40 v 120 c 0,4.4 -3.6,8 -8,8 h -64 c -4.4,0 -8,3.6 -8,8 v 24 c 0,13.3 -10.7001,24 -24,24 -13.3,0 -24,-10.7 -24,-24 v -24 c 0,-4.4 -3.6,-8 -8,-8 h -48 c -4.4,0 -8,-3.6 -8,-8 v -24 c 0,-4.4 3.6,-8 8,-8 h 16 c 22.1,0 40,-17.9 40,-40 0,-22.1 -17.9,-40 -40,-40 h -16 c -4.4,0 -8,-3.6 -8,-8 z m 8,-24 c -13.3,0 -24,10.7 -24,24 v 32 c 0,13.3 10.7,24 24,24 h 16 c 13.2999,0 24,10.7 24,24 0,13.3 -10.7001,24 -24,24 h -16 c -13.3,0 -24,10.7 -24,24 v 24 c 0,13.3 10.7,24 24,24 h 40 v 16 c 0,22.1 17.9,40 40,40 22.1,0 40,-17.9 40,-40 v -16 h 56 c 13.2999,0 24,-10.7 24,-24 v -120 c 0,-30.9 -25.1,-56 -56,-56 z m -256,64 c -30.9,0 -56,25.1 -56,56 v 168 168 c 0,30.9 25.1,56 56,56 h 168 168 c 30.9,0 56,-25.1 56,-56 v -152 c 0,-13.3 -10.7001,-24 -24,-24 h -56 c -13.3,0 -24,10.7 -24,24 v 16 c 0,13.3 -10.7001,24 -24,24 -13.3,0 -24,-10.7 -24,-24 v -16 c 0,-13.3 -10.7001,-24 -24,-24 h -40 v -192 c 0,-13.3 -10.7001,-24 -24,-24 z m 160,24 v 192 h -40 c -4.4,0 -8,-3.6 -8,-8 v -16 c 0,-22.1 -17.9,-40 -40,-40 -22.1,0 -40,17.9 -40,40 v 16 c 0,4.4 -3.6,8 -8,8 h -64 v -160 c 0,-22.1 17.9,-40 40,-40 h 152 c 4.4,0 8,3.6 8,8 z m -136,208 c 13.2999,0 24,-10.7 24,-24 v -16 c 0,-13.3 10.7,-24 24,-24 13.2999,0 24,10.7 24,24 v 16 c 0,13.3 10.7,24 24,24 h 40 v 40 c 0,4.4 -3.6,8 -8,8 h -16 c -22.1,0 -40,17.9 -40,40 0,22.1 17.9,40 40,40 h 16 c 4.4,0 8,3.6 8,8 v 64 h -160 c -22.1,0 -40,-17.9 -40,-40 v -160 z m 152,136 c 0,-13.3 -10.7001,-24 -24,-24 h -16 c -13.3,0 -24,-10.7 -24,-24 0,-13.3 10.7,-24 24,-24 h 16 c 13.2999,0 24,-10.7 24,-24 v -40 h 40 c 4.4,0 8,3.6 8,8 v 16 c 0,22.1 17.9,40 40,40 22.1,0 40,-17.9 40,-40 v -16 c 0,-4.4 3.6,-8 8,-8 h 56 c 4.4,0 8,3.6 8,8 v 152 c 0,22.1 -17.9,40 -40,40 h -160 z"
     id="path4"
     style="fill:#ffffff;fill-opacity:1;stroke:#ffffff;stroke-width:5;stroke-miterlimit:4;stroke-dasharray:none;stroke-opacity:1"
     inkscape:connector-curvature="0" />
  <g
     id="g1154"
     transform="translate(-57.875689,2.9195534e-5)">
    <path
       d="m 3122.7201,301.6993 38.4178,55.03542 38.4179,-55.03542 h 37.9369 l -55.94,80.14665 61.1192,87.43379 h -38.6599 l -42.6933,-59.85497 -42.1509,59.85671 h -37.6947 l 60.2154,-85.92841 -56.3614,-81.65377 z m 248.6927,167.58218 -28.844,-49.37913 c -2.0054,0.17394 -4.0161,0.17394 -6.0199,0 h -37.4561 v 49.37913 h -32.1523 V 301.69759 h 69.6084 c 43.1761,0 67.8045,20.77536 67.8045,57.68789 0,26.37382 -11.6818,45.22131 -33.1793,54.19544 l 36.733,55.70056 h -36.4925 z m -72.2584,-77.74037 h 37.6349 c 24.0863,0 37.2123,-10.23652 37.2123,-31.31389 0,-21.07404 -13.3665,-30.64695 -37.2123,-30.64695 h -37.6966 v 62.022 h 0.052 z m 253.9912,42.15162 h -81.7745 l -14.8124,35.58875 h -33.058 l 73.4626,-167.58389 h 33.1177 l 72.3811,167.58389 h -34.3827 z m -11.4428,-27.57885 -29.1445,-70.69423 -30.1075,70.51259 59.2539,0.17365 z m 132.4758,7.94724 v 55.21862 h -31.9753 V 415.62746 L 3579.8222,301.6993 h 32.4543 l 45.5239,78.76181 44.8606,-78.76181 h 32.1559 l -60.6382,112.36362 z"
       id="path12"
       inkscape:connector-curvature="0"
       style="fill:#ffffff;fill-opacity:1" />
    <g
       id="g4316"
       transform="matrix(4.1702366,0,0,4.1702366,3025.2436,-1063.1187)">
      <path
         style="opacity:0.5;fill:#31b34b"
         inkscape:connector-curvature="0"
         id="path6"
         d="m 4.2073672,347.50865 -28.8786552,7.21936 -14.45969,54.09504 z" />
      <path
         style="fill:#31b34b"
         inkscape:connector-curvature="0"
         id="path10"
         d="m -53.5912,325.78738 v 36.20214 l 43.338343,-75.94128 z" />
      <path
         inkscape:connector-curvature="0"
         id="path4146"
         d="m -32.93285,325.78556 -20.658351,36.20215 v 0.0845 L 4.2120791,347.50625 h 0.094101 L -10.247756,325.79941 h -22.685253 z"
         style="opacity:0.8;fill:#31b34b" />
    </g>
  </g>
  <g
     style="fill:none"
     id="g5902"
     transform="matrix(2.5097817,0,0,2.5097817,560.57246,181.06646)">
    <g
       clip-path="url(#clip0_337_7901)"
       id="g5830">
      <mask
         id="mask0_337_7901"
         maskUnits="userSpaceOnUse"
         x="0"
         y="0"
         width="319"
         height="195">
        <path
           d="M 319,0 H 0 v 195 h 319 z"
           fill="#ffffff"
           id="path5805" />
      </mask>
      <g
         mask="url(#mask0_337_7901)"
         id="g5828">
        <path
           d="m 157.625,195 c -1.081,0 -2.091,-0.288 -3.028,-0.792 l -9.59,-5.686 c -1.442,-0.792 -0.721,-1.08 -0.289,-1.224 1.947,-0.648 2.308,-0.792 4.327,-1.944 0.216,-0.144 0.504,-0.072 0.721,0.072 l 7.355,4.391 c 0.288,0.144 0.649,0.144 0.865,0 l 28.77,-16.628 c 0.289,-0.144 0.433,-0.432 0.433,-0.791 v -33.184 c 0,-0.36 -0.144,-0.648 -0.433,-0.792 l -28.77,-16.556 c -0.289,-0.144 -0.649,-0.144 -0.865,0 l -28.771,16.556 c -0.288,0.144 -0.433,0.504 -0.433,0.792 v 33.184 c 0,0.288 0.145,0.647 0.433,0.791 l 7.86,4.535 c 4.254,2.16 6.922,-0.36 6.922,-2.879 v -32.752 c 0,-0.432 0.36,-0.864 0.865,-0.864 h 3.678 c 0.432,0 0.865,0.36 0.865,0.864 v 32.752 c 0,5.687 -3.101,8.998 -8.509,8.998 -1.658,0 -2.956,0 -6.633,-1.8 l -7.572,-4.319 c -1.874,-1.079 -3.028,-3.095 -3.028,-5.254 v -33.184 c 0,-2.16 1.154,-4.175 3.028,-5.255 l 28.771,-16.628 c 1.803,-1.008 4.254,-1.008 6.057,0 l 28.77,16.628 c 1.875,1.08 3.029,3.095 3.029,5.255 v 33.184 c 0,2.159 -1.154,4.175 -3.029,5.254 l -28.77,16.628 c -0.865,0.36 -1.947,0.648 -3.029,0.648 z"
           fill="#5fa04e"
           id="path5808" />
        <path
           d="m 166.567,172.182 c -12.619,0 -15.215,-5.759 -15.215,-10.654 0,-0.432 0.361,-0.864 0.865,-0.864 h 3.75 c 0.433,0 0.793,0.288 0.793,0.72 0.577,3.815 2.235,5.687 9.879,5.687 6.057,0 8.652,-1.368 8.652,-4.607 0,-1.872 -0.721,-3.239 -10.167,-4.175 -7.859,-0.792 -12.762,-2.519 -12.762,-8.782 0,-5.83 4.903,-9.286 13.123,-9.286 9.23,0 13.772,3.168 14.349,10.078 0,0.216 -0.072,0.432 -0.216,0.648 -0.144,0.144 -0.361,0.288 -0.577,0.288 h -3.822 c -0.36,0 -0.721,-0.288 -0.793,-0.648 -0.865,-3.959 -3.1,-5.255 -9.013,-5.255 -6.634,0 -7.427,2.304 -7.427,4.031 0,2.088 0.937,2.736 9.878,3.887 8.87,1.152 13.052,2.808 13.052,8.998 0,6.335 -5.264,9.934 -14.349,9.934 z"
           fill="#5fa04e"
           id="path5810" />
        <path
           d="m 208.1,137.342 c 0,3.023 -2.524,5.543 -5.552,5.543 -3.029,0 -5.552,-2.448 -5.552,-5.543 0,-3.167 2.595,-5.542 5.552,-5.542 2.956,0 5.552,2.447 5.552,5.542 z m -10.239,0 c 0,2.592 2.091,4.679 4.615,4.679 2.596,0 4.687,-2.159 4.687,-4.679 0,-2.591 -2.091,-4.607 -4.687,-4.607 -2.452,0 -4.615,2.016 -4.615,4.607 z m 2.596,-3.095 h 2.163 c 0.721,0 2.163,0 2.163,1.656 0,1.151 -0.721,1.367 -1.154,1.511 0.866,0.072 0.938,0.648 1.01,1.44 0.072,0.504 0.144,1.367 0.288,1.655 h -1.298 c 0,-0.288 -0.216,-1.871 -0.216,-1.943 -0.072,-0.36 -0.216,-0.504 -0.649,-0.504 h -1.081 v 2.519 h -1.226 z m 1.153,2.735 h 0.938 c 0.793,0 0.937,-0.576 0.937,-0.864 0,-0.863 -0.577,-0.863 -0.937,-0.863 h -1.01 v 1.727 z"
           fill="#5fa04e"
           id="path5812" />
        <path
           fill-rule="evenodd"
           clip-rule="evenodd"
           d="m 68.4293,65.2159 c 0,-1.2956 -0.7211,-2.5193 -1.8748,-3.1672 L 36.0533,44.4131 c -0.5047,-0.288 -1.0816,-0.4319 -1.6584,-0.5039 -0.0721,0 -0.2884,0 -0.2884,0 -0.5769,0 -1.1537,0.2159 -1.6585,0.5039 L 1.87477,61.9767 C 0.721067,62.6246 0,63.8483 0,65.2159 l 0.0721067,47.2201 c 0,0.648 0.3605333,1.296 0.9373833,1.584 0.57686,0.36 1.29792,0.36 1.80267,0 L 20.983,103.654 c 1.1538,-0.647 1.8748,-1.871 1.8748,-3.167 V 78.3887 c 0,-1.2957 0.7211,-2.5194 1.8748,-3.1672 l 7.7154,-4.4629 c 0.5769,-0.3599 1.2258,-0.5039 1.8748,-0.5039 0.6489,0 1.2979,0.144 1.8027,0.5039 l 7.7154,4.4629 c 1.1537,0.6478 1.8747,1.8715 1.8747,3.1672 v 22.0983 c 0,1.296 0.7211,2.52 1.8748,3.167 l 18.0267,10.366 c 0.5768,0.36 1.2979,0.36 1.8748,0 0.5768,-0.288 0.9374,-0.936 0.9374,-1.584 z"
           fill="#ffffff"
           id="path5814" />
        <path
           fill-rule="evenodd"
           clip-rule="evenodd"
           d="m 215.382,0.215947 c -0.576,-0.2879293 -1.297,-0.2879293 -1.802,0 -0.577,0.359911 -0.938,0.935773 -0.938,1.583613 V 48.588 c 0,0.4319 -0.216,0.8638 -0.649,1.1518 -0.432,0.2159 -0.865,0.2159 -1.297,0 l -7.644,-4.391 c -1.153,-0.6478 -2.524,-0.6478 -3.677,0 l -30.573,17.6357 c -1.154,0.6478 -1.875,1.8715 -1.875,3.1672 v 35.1993 c 0,1.296 0.721,2.519 1.875,3.167 l 30.573,17.636 c 1.153,0.648 2.524,0.648 3.677,0 l 30.573,-17.636 c 1.154,-0.648 1.875,-1.871 1.875,-3.167 V 13.6047 c 0,-1.3677 -0.721,-2.5914 -1.875,-3.2393 z M 212.57,89.7619 c 0,0.3599 -0.144,0.6479 -0.432,0.7918 l -10.456,6.0465 c -0.288,0.144 -0.649,0.144 -0.937,0 l -10.456,-6.0465 c -0.288,-0.1439 -0.432,-0.5039 -0.432,-0.7918 v -12.093 c 0,-0.3599 0.144,-0.6479 0.432,-0.7918 l 10.456,-6.0465 c 0.288,-0.144 0.649,-0.144 0.937,0 l 10.456,6.0465 c 0.288,0.1439 0.432,0.5039 0.432,0.7918 z"
           fill="#ffffff"
           id="path5816" />
        <path
           fill-rule="evenodd"
           clip-rule="evenodd"
           d="m 317.125,77.3809 c 1.154,-0.6478 1.803,-1.8715 1.803,-3.1672 v -8.5659 c 0,-1.2956 -0.721,-2.5193 -1.803,-3.1672 L 286.769,44.9169 c -1.154,-0.6478 -2.524,-0.6478 -3.678,0 l -30.573,17.6357 c -1.154,0.6478 -1.875,1.8715 -1.875,3.1672 v 35.1992 c 0,1.296 0.721,2.52 1.875,3.167 l 30.357,17.276 c 1.153,0.648 2.523,0.648 3.605,0 l 18.387,-10.221 c 0.577,-0.288 0.938,-0.936 0.938,-1.584 0,-0.648 -0.361,-1.296 -0.938,-1.584 L 274.15,90.3378 c -0.577,-0.36 -0.938,-0.9358 -0.938,-1.5836 V 77.7409 c 0,-0.6479 0.361,-1.2957 0.938,-1.5836 l 9.59,-5.4707 c 0.577,-0.3599 1.298,-0.3599 1.875,0 l 9.59,5.4707 c 0.577,0.3599 0.937,0.9357 0.937,1.5836 v 8.6378 c 0,0.6479 0.361,1.2957 0.938,1.5836 0.577,0.36 1.298,0.36 1.875,0 z"
           fill="#ffffff"
           id="path5818" />
        <path
           fill-rule="evenodd"
           clip-rule="evenodd"
           d="m 284.461,75.7253 c 0.216,-0.1439 0.505,-0.1439 0.721,0 l 5.841,3.3832 c 0.216,0.144 0.36,0.3599 0.36,0.6479 v 6.7663 c 0,0.2879 -0.144,0.5039 -0.36,0.6478 l -5.841,3.3832 c -0.216,0.144 -0.505,0.144 -0.721,0 l -5.841,-3.3832 c -0.216,-0.1439 -0.36,-0.3599 -0.36,-0.6478 v -6.7663 c 0,-0.288 0.144,-0.5039 0.36,-0.6479 z"
           fill="#5fa04e"
           id="path5820" />
        <path
           d="m 119.445,44.5068 c -1.174,-0.6601 -2.567,-0.6601 -3.74,0 L 84.8332,62.3292 C 83.6599,62.9892 83,64.2361 83,65.5563 v 35.7187 c 0,1.32 0.7332,2.566 1.8332,3.227 l 30.8718,17.822 c 1.173,0.66 2.566,0.66 3.74,0 l 30.872,-17.822 c 1.173,-0.661 1.833,-1.907 1.833,-3.227 V 65.5563 c 0,-1.3202 -0.734,-2.5671 -1.833,-3.2271 z"
           fill="url(#paint0_linear_337_7901)"
           id="path5822"
           style="fill:url(#paint0_linear_337_7901)" />
        <path
           d="M 150.39,62.3292 119.371,44.5067 c -0.293,-0.1466 -0.66,-0.2933 -0.953,-0.3667 l -34.6802,59.41 c 0.2933,0.367 0.7559,0.902 1.1225,1.122 l 30.8447,17.652 c 0.88,0.513 1.906,0.66 2.86,0.366 l 32.631,-59.7008 c -0.22,-0.2933 -0.513,-0.5133 -0.806,-0.66 z"
           fill="url(#paint1_linear_337_7901)"
           id="path5824"
           style="fill:url(#paint1_linear_337_7901)" />
        <path
           d="m 150.314,104.502 c 0.88,-0.514 1.673,-1.476 1.673,-2.636 L 118.195,44.0667 c -0.88,-0.1467 -1.833,-0.0733 -2.64,0.4401 L 84.7567,62.2559 117.975,122.837 c 0.44,-0.073 0.953,-0.22 1.393,-0.44 z"
           fill="url(#paint2_linear_337_7901)"
           id="path5826"
           style="fill:url(#paint2_linear_337_7901)" />
      </g>
    </g>
  </g>
</svg>
